<svg width="712" height="560" viewBox="0 0 712 560" fill="none" xmlns="http://www.w3.org/2000/svg">
<g clip-path="url(#clip0_51_4781)">
<path opacity="0.5" d="M417.38 256.568H278.341C267.632 256.568 258.951 247.905 258.951 237.224V98.5095C258.951 87.8283 267.632 79.166 278.341 79.166H417.38C428.089 79.166 436.77 87.8283 436.77 98.5095V237.224C436.77 247.905 428.089 256.568 417.38 256.568Z" stroke="#4598E6"/>
<path d="M389.255 216.451H306.465V220.53H389.255V216.451Z" fill="#E6E7F8"/>
<path d="M377.529 229.309H318.192V233.388H377.529V229.309Z" fill="#E6E7F8"/>
<path opacity="0.5" d="M687.986 426.631H490.118C477.453 426.631 467.186 416.389 467.186 403.753V163.917C467.186 151.284 477.45 141.039 490.118 141.039H687.986C700.651 141.039 710.919 151.281 710.919 163.917V403.753C710.915 416.389 700.651 426.631 687.986 426.631Z" stroke="#4598E6"/>
<path d="M597.059 309.611H577.648V313.196H597.059V309.611Z" fill="#4598E6"/>
<path d="M616.902 342.473H503.957V349.416H616.902V342.473Z" fill="#E6E7F8"/>
<path d="M595.29 375.811H503.957V382.754H595.29V375.811Z" fill="#E6E7F8"/>
<path d="M557.5 359.145H503.957V366.088H557.5V359.145Z" fill="#E6E7F8"/>
<path d="M646.45 169.121V172.628H667.147V192.009H670.663V169.121H646.45ZM505.903 192.009H509.418V172.628H530.115V169.121H505.903V192.009ZM667.15 292.004V311.391H646.454V314.898H670.666V292.004H667.15ZM509.415 292.004H505.899V314.898H530.111V311.391H509.415V292.004Z" fill="#4598E6"/>
<path d="M659.705 383.266C648.291 383.266 639.005 374.003 639.005 362.615C639.005 351.227 648.291 341.963 659.705 341.963C671.12 341.963 680.406 351.227 680.406 362.615C680.406 374.003 671.12 383.266 659.705 383.266ZM659.705 345.961C650.501 345.961 643.012 353.432 643.012 362.615C643.012 371.797 650.501 379.269 659.705 379.269C668.91 379.269 676.398 371.797 676.398 362.615C676.398 353.432 668.91 345.961 659.705 345.961Z" fill="#1391EE"/>
<path d="M658.387 370.742L648.982 361.359L651.813 358.535L658.387 365.09L667.598 355.9L670.428 358.725L658.387 370.742Z" fill="#1391EE"/>
<path d="M672.154 544.316C672.154 552.978 521.782 560 336.285 560C150.787 560 0.415161 552.978 0.415161 544.316C0.415161 535.654 150.787 528.633 336.285 528.633C521.779 528.633 672.154 535.654 672.154 544.316Z" fill="#E6E7F8"/>
<path d="M393.897 148.144C389.927 137.669 380.39 132.856 375.888 131.358C374.285 130.827 371.423 129.893 368.406 128.919C362.968 127.167 357.029 125.26 357.029 125.26H338.268C338.268 125.26 331.773 127.431 324.87 129.846C324.87 129.853 324.863 129.853 324.863 129.853C318.504 132.078 311.808 134.503 309.547 135.636C304.831 137.984 296.898 154.776 295.295 156.701C294.468 157.692 290.786 164.233 287.165 171.539H307.374C309.51 167.879 311.154 165.041 311.154 165.041C311.154 165.041 312.432 167.838 313.981 171.539H378.722C379.746 167.243 380.384 161.828 380.384 161.828C380.384 161.828 383.852 166.533 387.635 171.539H406.294C401.765 163.946 396.134 154.059 393.897 148.144Z" fill="#FF9138"/>
<path d="M349.886 73.8328C349.886 73.8328 364.555 76.1395 362.321 99.0337C360.087 121.928 347.143 120.054 346.275 120.03C345.411 120.007 333.281 120.446 332.335 92.4925C332.335 92.4959 331.922 71.8238 349.886 73.8328Z" fill="#EEA886"/>
<path d="M362.548 92.5671C362.548 92.5671 364.155 90.8557 364.745 92.5874C365.335 94.3191 362.555 102.047 362.453 102.409C362.453 102.409 362.158 103.082 361.775 102.71C361.389 102.345 362.548 92.5671 362.548 92.5671Z" fill="#EEA886"/>
<path d="M332.728 92.2802C332.728 92.2802 331.155 90.5384 330.532 92.2599C329.908 93.9815 332.515 101.761 332.633 102.126C332.633 102.126 332.915 102.802 333.305 102.44C333.698 102.075 332.728 92.2802 332.728 92.2802Z" fill="#EEA886"/>
<path d="M362.541 96.0815L360.443 98.882C360.443 98.882 360.5 92.7399 360.165 91.7793C359.829 90.8154 359.314 87.8762 359.029 87.1829C358.748 86.4895 346.435 83.0464 335.556 88.1874C335.556 88.1874 336.034 92.6012 334.993 92.9969C333.952 93.3892 334.461 100.188 334.461 100.188L332.735 98.2427C332.735 98.2427 330.094 80.6281 330.745 78.7916C331.396 76.9551 333.478 65.9189 355.792 72.4702C355.792 72.4702 362.748 70.999 364.145 75.7916C365.542 80.5808 362.541 96.0815 362.541 96.0815Z" fill="#434343"/>
<path d="M358.85 124.852C358.843 124.831 356.968 123.928 356.968 123.928C356.053 121.889 356.734 113.288 356.734 113.288C356.734 113.288 338.051 108.543 338.587 112.172C339.119 115.797 336.976 124.226 336.976 124.226L327.393 128.975C327.393 128.975 337.604 156.33 349.34 152.799C361.077 149.271 365.508 127.987 365.508 127.987L358.85 124.852Z" fill="#EEA886"/>
<path d="M338.854 116.203C338.854 116.203 341.865 120.079 347.089 120.079C350.527 120.079 352.991 119.119 356.415 115.787C356.415 115.787 354.93 122.112 347.113 122.7C347.109 122.7 341.441 123.417 338.854 116.203Z" fill="#A77860"/>
<path d="M284.921 208.047C284.921 208.047 295.698 213.306 293.033 227.616C290.369 241.926 289.189 243.854 292.169 249.445C295.149 255.036 298.668 278.887 295.983 283.409C293.301 287.931 262.773 263.542 258.542 243.083C254.308 222.621 261.224 213.523 263.668 210.13C266.119 206.741 275.405 203.23 284.921 208.047Z" fill="#0E2D3D"/>
<path d="M280.856 540.136H283.301V528.644C283.301 528.644 288.091 531.83 291.098 536.237C294.105 540.644 298.237 540.268 304.533 539.984C310.828 539.703 310.547 537.173 309.981 533.612C309.418 530.051 303.028 528.924 300.96 528.363C298.892 527.801 294.2 519.735 292.691 517.77C290.633 515.091 289.545 512.521 289.545 512.521C289.545 512.521 288.372 507.741 282.545 512.521C276.72 517.3 278.412 526.486 279.07 527.331C279.727 528.173 280.856 540.136 280.856 540.136Z" fill="#163342"/>
<path d="M293.162 528.363C295.322 529.77 300.96 528.363 300.96 528.363C299.363 526.3 289.545 512.524 289.545 512.524C283.579 509.057 281.222 513.83 281.222 513.83C283.657 514.567 291.003 526.956 293.162 528.363Z" fill="#EEA886"/>
<path d="M355.981 316.325C355.981 316.325 359.894 317.073 361.229 315.24C362.365 313.681 364.962 312.483 365.762 312.115C366.83 311.621 369.545 308.881 370.183 310.221C370.82 311.56 365.928 314.949 365.043 315.866C364.158 316.782 369.84 317.185 370.823 318.077C371.803 318.967 370.596 328.319 366.731 327.592C362.863 326.864 359.212 323.54 358.507 323.546C357.802 323.553 355.673 323.127 355.673 323.127L355.981 316.325Z" fill="#EEA886"/>
<path d="M369.959 317.688C369.959 317.688 381.651 320.701 382.261 321.553C382.872 322.406 382.672 323.028 381.566 322.791C380.461 322.555 370.186 320.204 370.186 320.204C370.186 320.204 383.424 326.092 384.079 326.681C384.462 327.026 384.143 328.254 383.54 328.183C382.936 328.111 369.481 323.025 369.481 323.025C369.481 323.025 381.831 328.544 382.231 329.197C382.58 329.769 382.004 330.824 381.061 330.479C380.119 330.134 368.365 325.656 368.365 325.656C368.365 325.656 377.102 330.236 377.112 330.99C377.119 331.45 376.891 332.525 374.674 331.274C372.457 330.022 366.914 327.614 366.914 327.614L369.959 317.688Z" fill="#EEA886"/>
<path d="M249.203 540.92H250.705V532.485C250.705 532.485 253.379 535.228 254.6 539.259C255.82 543.291 260.194 544.485 266.865 544.299C273.537 544.113 273.629 541.485 273.066 537.548C272.503 533.611 266.865 531.548 266.865 531.548C264.329 529.299 258.034 519.97 258.034 519.97C258.034 519.97 253.993 518.892 250.823 521.445C247.653 523.999 248.64 529.765 248.732 531.264C248.826 532.765 249.203 540.92 249.203 540.92Z" fill="#163342"/>
<path d="M253.806 339.96C253.806 339.96 245.857 350.269 243.7 362.503C241.544 374.736 244.975 415.79 244.88 421.837C244.785 427.884 239.148 442.928 240.276 454.316C241.405 465.704 245.853 522.387 245.853 522.387L258.034 519.975C258.034 519.975 257.329 462.19 258.034 457.408C258.739 452.625 260.153 435.204 260.434 433.235C260.715 431.267 278.327 379.58 278.327 370.762C278.327 361.938 272.974 325.572 253.806 339.96Z" fill="#1D3B54"/>
<path d="M293.735 343.988C293.735 343.988 306.794 393.713 308.343 400.603C309.893 407.493 312.14 413.175 312.14 416.1C312.14 422.888 309.611 433.786 309.611 433.786L293.027 512.913H277.232C277.232 512.913 286.033 465.44 286.27 456.159C286.508 446.855 293.684 433.644 292.278 429.707C290.867 425.77 269.587 380.357 269.587 380.357C269.587 380.357 253.478 329.553 293.735 343.988Z" fill="#1D3B54"/>
<path d="M266.865 531.548L258.034 519.971L250.823 521.445C250.823 521.445 252.762 526.627 256.268 530.523C260.421 535.143 266.865 531.548 266.865 531.548Z" fill="#EEA886"/>
<path d="M288.341 259.486C288.341 259.486 293.725 259.994 297.793 264.343C301.861 268.693 305.679 275.626 306.746 277.946C307.811 280.267 322.748 301.761 323.524 302.244C324.301 302.728 331.806 305.231 336.783 306.902C344.458 309.479 359.849 315.059 359.849 315.059L356.795 324.712C356.795 324.712 327.86 315.266 320.612 313.483C311.75 311.305 291.352 285.195 291.352 285.195C291.352 285.195 276.137 267.411 288.341 259.486Z" fill="#285173"/>
<path d="M278.948 255.72C278.948 255.72 285.921 259.004 288.345 259.488C290.766 259.971 300.163 272.147 301.811 276.592C303.458 281.036 301.811 287.706 298.42 295.532C295.03 303.358 298.227 305.97 296.678 313.796C295.129 321.622 295.627 350.909 295.919 355.255C296.21 359.605 250.579 366.197 241.572 358.272C241.572 358.272 247.67 331.881 254.891 324.348C256.454 322.718 256.288 311.865 255.224 309.159C254.159 306.453 242.148 286.255 242.148 286.255C242.148 286.255 241.266 265.769 246.508 261.71C251.06 258.182 263.468 256.924 265.696 256.153C267.913 255.378 274.395 255.044 278.948 255.72Z" fill="#E6E7F8"/>
<path d="M282.277 247.69C282.277 247.69 282.07 249.604 281.829 252.195C281.738 253.219 281.636 254.349 281.541 255.509C281.263 258.979 281.043 262.707 281.175 264.611C281.175 264.611 273.927 271.859 265.685 256.155C265.685 256.155 269.15 249.678 266.54 240.864C263.933 232.043 282.277 247.69 282.277 247.69Z" fill="#EEA886"/>
<path d="M302.56 298.42C302.56 298.42 304.306 286.843 302.448 279.805C302.448 279.805 302.448 285.859 299.122 294.453L302.56 298.42Z" fill="#183C59"/>
<path d="M260.115 257.269C260.115 257.269 265.102 271.958 278.788 270.879C292.474 269.797 285.277 258.477 285.277 258.477C285.277 258.477 281.867 256.525 280.907 256.342C279.948 256.16 265.774 255.98 265.774 255.98L260.115 257.269Z" fill="#EEA886"/>
<path d="M285.277 258.473C285.277 258.473 292.447 278.255 292.447 298.42C292.447 318.585 293.023 351.429 295.529 361.803C298.03 372.176 305.157 404.253 305.157 404.253L310.74 401.371C310.74 401.371 297.315 350.175 296.302 346.485C295.288 342.791 297.071 303.794 298.034 300.527C298.997 297.26 303.092 282.727 302.455 278.695C301.651 273.611 296.885 266.089 289.182 259.623L285.277 258.473Z" fill="#285173"/>
<path d="M262.821 256.648C262.821 256.648 267.275 270.881 269.533 289.111C271.791 307.341 262.604 391.957 256.44 411.165L232.567 407.323C232.567 407.323 237.707 347.512 244.684 336.628C251.66 325.744 253.881 316.111 246.348 293.393C238.819 270.674 249.65 259.422 249.65 259.422C249.65 259.422 260.729 256.885 262.821 256.648Z" fill="#285173"/>
<path d="M288.579 317.008L259.631 367.031L227.452 348.497L255.142 297.75L288.579 317.008Z" fill="#616161"/>
<path d="M285.087 318.729L259.38 363.154L230.801 346.693L255.393 301.625L285.087 318.729Z" fill="white"/>
<path d="M275.605 314.738L277.409 311.62L265.855 304.967L263.597 307.825L275.605 314.738Z" fill="#616161"/>
<path d="M274.225 350.232C274.225 350.232 272.91 350.238 272.33 349.961C272.33 349.961 271.32 349.376 270.574 349.004C270.337 348.886 270.13 348.791 269.988 348.74C269.398 348.537 268.042 348.267 266.76 347.377C265.482 346.491 260.949 341.255 260.949 341.255L263.089 338.008L264.658 334.684C264.658 334.684 274.174 335.296 275.463 335.986C275.588 336.053 275.71 336.124 275.819 336.202C276.853 336.889 277.331 337.836 277.832 338.259C278.015 338.414 279.731 340.092 279.67 340.805C279.588 341.796 279.127 342.449 278.531 342.774C278.531 342.774 278.283 344.705 277.331 345.608C277.331 345.608 277.161 347.397 275.652 348.182C275.659 348.175 275.283 349.971 274.225 350.232Z" fill="#EEA886"/>
<path d="M254.61 259.488C254.61 259.488 245.819 256.975 240.782 266.638C235.744 276.301 235.771 280.423 235.096 285.145C234.459 289.599 231.591 301.765 231.299 303.023C231.008 304.278 224.509 319.261 227.489 324.497C230.486 329.76 260.909 345.254 260.715 346.41C260.522 347.571 265.984 334.698 265.984 334.698C265.984 334.698 253.671 327.852 251.657 325.745C248.382 322.322 241.473 318.632 242.894 314.384C244.562 309.396 249.569 292.562 250.732 290.097C251.898 287.634 262.021 262.63 254.61 259.488Z" fill="#285173"/>
<path d="M283.358 209.636C283.358 209.636 299.007 214.544 290.511 241.486C282.016 268.429 260.641 238.365 262.878 221.947C265.116 205.53 283.358 209.636 283.358 209.636Z" fill="#EEA987"/>
<path d="M292.112 225.356C292.112 225.356 284.335 232.97 271.32 233.92C271.32 233.92 266.319 239.771 265.933 242.068C265.933 242.068 254.322 222.322 268.594 210.485C282.87 198.65 297.359 220.479 292.112 225.356Z" fill="#0E2D3D"/>
<path d="M271.479 234.458C271.377 232.496 270.167 228.035 267.245 229.283C264.323 230.531 267.425 239.619 269.36 239.061C269.364 239.061 271.716 239.098 271.479 234.458Z" fill="#EEA987"/>
<path d="M281.829 252.196C281.738 253.221 281.636 254.35 281.541 255.51C281.541 255.51 274.632 255.101 270.018 244.85C270.316 245.296 275.378 252.713 281.829 252.196Z" fill="#A77860"/>
<path d="M110.459 498.6C120.493 491.558 132.237 442.495 132.938 413.27C133.298 398.3 137.732 392.063 141.644 386.56C145.384 381.301 148.614 376.759 146.733 366.328C143.136 346.396 152.591 337.792 152.689 337.708L151.594 336.463C151.174 336.832 141.326 345.706 145.099 366.622C146.858 376.366 143.96 380.442 140.288 385.603C136.437 391.018 131.647 397.755 131.274 413.232C130.521 444.596 118.517 490.922 109.499 497.247L110.459 498.6Z" fill="url(#paint0_linear_51_4781)"/>
<path d="M89.4228 484.285C88.477 482.144 87.4938 479.929 86.3853 477.592C80.6526 465.521 75.5742 463.532 67.1599 460.238C65.1055 459.433 62.7731 458.52 60.2169 457.373C48.1651 451.968 50.4975 444.006 52.5586 436.982C52.8468 435.997 53.135 435.02 53.3825 434.049C54.4436 429.916 52.4061 427.843 49.3245 424.708C47.0328 422.374 44.1817 419.472 41.9849 414.889C39.5779 409.873 40.8051 407.181 42.2561 405.808C45.314 402.916 52.362 403.45 59.0168 407.076C61.0848 408.202 62.7866 409.981 64.5902 411.862C68.8346 416.296 74.113 421.812 87.4701 421.873C95.0843 421.91 99.2576 422.959 101.417 425.381C103.868 428.13 103.407 432.243 102.766 437.939C102.546 439.907 102.295 442.139 102.143 444.554C101.234 458.946 109.75 469.326 109.835 469.427C114.923 475.471 121.188 488.009 118.483 495.727C117.351 498.964 114.815 500.997 110.947 501.778C109.408 502.089 107.997 502.238 106.702 502.238C97.3625 502.235 93.9452 494.506 89.4228 484.285ZM58.2269 408.527C52.284 405.29 45.9106 404.637 43.4019 407.008C41.4967 408.811 42.3951 411.899 43.4833 414.172C45.5614 418.508 48.1922 421.187 50.511 423.547C53.735 426.832 56.2844 429.426 54.9928 434.458C54.7385 435.446 54.4469 436.444 54.1554 437.445C52.1044 444.443 50.1686 451.048 60.9017 455.861C63.424 456.991 65.7327 457.897 67.7701 458.695C76.2624 462.02 81.873 464.219 87.8871 476.882C89.0058 479.239 89.989 481.465 90.9416 483.616C96.1319 495.355 99.2677 502.441 110.618 500.151C113.872 499.495 115.991 497.821 116.917 495.176C119.3 488.374 113.598 476.469 108.56 470.486C108.191 470.046 99.5356 459.517 100.485 444.446C100.641 441.994 100.892 439.742 101.115 437.753C101.709 432.483 102.136 428.678 100.176 426.48C98.3863 424.471 94.4639 423.561 87.4633 423.527C73.4045 423.463 67.8515 417.662 63.3935 413.005C61.6069 411.141 60.0678 409.532 58.2269 408.527Z" fill="url(#paint1_linear_51_4781)"/>
<path d="M110.767 511.793L112.425 511.705C112.344 510.153 110.252 473.537 95.5149 462.819C79.3475 451.062 74.2487 438.426 71.8214 429.947C68.9601 419.953 54.3995 417.284 53.7825 417.176L53.4944 418.806C53.6368 418.83 67.6515 421.407 70.2246 430.404C72.7198 439.12 77.9541 452.101 94.5352 464.158C108.642 474.416 110.747 511.421 110.767 511.793Z" fill="url(#paint2_linear_51_4781)"/>
<path d="M107.963 520.029C104.495 518.308 104.621 511.381 104.811 500.896C105.051 487.648 105.38 469.503 98.427 452.811C91.0434 435.082 97.627 429.9 103.997 424.888C111.13 419.277 117.869 413.973 104.936 390.044C98.9966 379.055 97.1117 371.621 99.0034 366.649C100.871 361.738 106.116 359.824 111.665 357.795C121.246 354.298 132.108 350.33 130.704 330.098C130.274 323.895 131.006 320.08 133.006 318.094C135.179 315.936 138.38 316.17 142.085 316.44C147.686 316.85 154.028 317.313 159.551 310.119C160.124 308.323 165.409 292.281 171.728 289.535C173.054 288.957 174.356 288.967 175.593 289.555C179.956 291.635 182.489 294.104 183.333 297.104C184.804 302.316 180.977 308.198 176.542 315.006C169.582 325.708 161.687 337.836 169.874 352.268C180.699 371.351 174.983 378.027 167.067 387.267C162.534 392.561 157.395 398.564 153.961 408.352C151.198 416.226 155.91 423.731 160.47 430.989C166.185 440.094 172.098 449.51 159.653 457.682C139.071 471.19 118.747 515.284 118.544 515.727L118.459 515.91L118.3 516.035C114.51 519.001 111.747 520.415 109.669 520.415C109.042 520.415 108.475 520.283 107.963 520.029ZM158.737 456.295C169.83 449.016 164.84 441.068 159.063 431.865C154.52 424.627 149.367 416.425 152.394 407.801C155.934 397.722 161.178 391.593 165.806 386.188C173.559 377.134 178.681 371.151 168.43 353.08C159.748 337.775 168.291 324.649 175.152 314.107C179.366 307.637 183.004 302.046 181.736 297.558C181.027 295.045 178.783 292.921 174.878 291.054C174.081 290.675 173.267 290.675 172.393 291.057C166.531 293.604 161.148 310.586 161.093 310.758L161.049 310.897L160.961 311.012C154.873 319.041 147.716 318.517 141.963 318.098C138.525 317.847 135.813 317.648 134.176 319.275C132.566 320.875 131.972 324.382 132.359 329.99C133.847 351.463 121.863 355.84 112.235 359.354C106.824 361.329 102.153 363.034 100.553 367.241C98.844 371.73 100.702 378.727 106.397 389.263C119.992 414.416 112.384 420.403 105.024 426.19C98.8678 431.033 93.0571 435.606 99.9594 452.175C107.045 469.185 106.713 487.53 106.468 500.923C106.302 510.069 106.17 517.29 108.699 518.545C110.181 519.279 113.011 518.037 117.117 514.851C118.764 511.286 138.23 469.756 158.737 456.295Z" fill="url(#paint3_linear_51_4781)"/>
<path d="M75.4759 327.839C85.9514 324.257 83.7749 344.398 88.199 359.297C92.6231 374.199 137.434 365.798 118.625 403.114C99.817 440.429 142.414 415.594 129.691 448.154C116.968 480.718 128.586 515.545 114.754 506.687C100.922 497.829 106.984 456.823 92.5994 451.949C78.2151 447.076 75.8691 441.393 90.111 428.149C104.353 414.904 52.796 401.754 65.5191 375.004C78.2422 348.261 63.3766 331.979 75.4759 327.839Z" fill="url(#paint4_linear_51_4781)"/>
<path d="M109.933 504.55C111.252 498.976 122.5 449.917 112.004 443.988C102.753 438.762 102.98 418.432 104.424 399.238C105.702 382.246 83.8257 374.304 82.8934 373.973L82.3374 375.532C82.5544 375.61 103.949 383.382 102.766 399.113C101.285 418.828 101.125 439.747 111.184 445.429C119.154 449.93 111.815 489.357 108.316 504.171L109.933 504.55Z" fill="white"/>
<path d="M149.452 487.08L134.498 543.685H101.078L86.1243 487.08H149.452Z" fill="#FF9138"/>
<path d="M149.452 487.08C149.452 487.08 116.53 493.246 116.53 543.681H101.078L86.1243 487.08H149.452Z" fill="#FFAC6A"/>
<path opacity="0.5" d="M569.857 130.648H471.185C462.153 130.648 454.834 123.346 454.834 114.336V28.9179C454.834 19.9077 462.153 12.6055 471.185 12.6055H569.857C578.889 12.6055 586.208 19.9077 586.208 28.9179V114.336C586.211 123.346 578.889 130.648 569.857 130.648Z" fill="#E6E7F8"/>
<path d="M525.233 108.322H514.812V110.247H525.233V108.322Z" fill="#4598E6"/>
<path d="M529.444 2.26631C529.444 2.26631 537.838 6.86613 535.173 18.1762C532.508 29.4864 531.495 30.9779 533.661 35.5473C535.827 40.1167 537.729 59.2668 535.42 62.7707C533.112 66.2747 509.693 45.6838 507.093 29.209C504.489 12.7343 510.347 5.73985 512.425 3.12878C514.503 0.517709 522.04 -1.9344 529.444 2.26631Z" fill="#344052"/>
<path d="M545.208 95.7334H536.22C535.787 91.3094 535.383 88.2316 535.468 87.775C535.6 87.0242 526.525 63.2709 525.677 61.3058C524.823 59.3475 521.497 54.078 521.063 49.1163C520.623 44.1546 527.108 42.1523 527.108 42.1523C535.861 43.7183 538.824 55.7962 538.824 55.7962C538.824 55.7962 542.499 80.2902 544.357 87.1831C544.835 88.952 545.092 92.0738 545.208 95.7334Z" fill="#EEA886"/>
<path d="M540.685 61.6994L527.301 67.3307C527.301 67.3307 514.998 36.8705 525.311 40.273C535.59 43.662 540.214 50.0341 540.685 61.6994Z" fill="url(#paint5_linear_51_4781)"/>
<path d="M537.705 76.0381C537.315 79.0617 535.715 89.7732 536.071 92.6684C536.132 93.1453 536.329 94.2445 536.627 95.7361H504.353C505.211 92.6785 505.994 89.9728 506.465 88.4C508.035 83.2151 506.533 81.825 505.74 77.675C505.431 76.0516 504.346 72.967 503.167 69.4799C502.77 68.3165 502.363 67.1022 501.973 65.8846C500.553 61.4945 499.895 57.0063 499.488 54.3919C497.543 42.0062 507.089 40.8157 507.089 40.8157C510.639 40.1629 516.836 38.252 516.836 38.252L526.545 40.2678C526.545 40.2678 527.471 40.6127 528.816 41.6071C528.816 41.6071 528.823 41.6071 528.823 41.6139C529.471 42.0908 530.22 42.7165 531.006 43.5248C532.068 44.6105 534.18 47.7222 536.288 51.1416C536.932 52.1901 537.58 53.2656 538.19 54.3242C540.163 57.7335 541.567 60.4832 541.523 63.5814C541.485 66.6321 538.095 73.0144 537.705 76.0381Z" fill="url(#paint6_linear_51_4781)"/>
<path d="M526.545 40.2722C526.545 40.2722 532.627 50.6421 530.365 51.42C528.104 52.1945 516.181 49.5767 511.523 39.7784C511.523 39.775 519.351 36.2271 526.545 40.2722Z" fill="#EEA886"/>
<path d="M525.674 45.0076C525.674 45.0076 520.27 47.2872 515.378 39.7787C515.378 39.7787 516.693 31.2522 513.913 26.3209C511.134 21.3896 526.06 32.233 526.06 32.233C526.06 32.233 525.82 33.251 525.569 34.7494C525.44 35.5171 525.308 36.41 525.209 37.3604C525.125 38.1519 525.06 38.9805 525.033 39.8058C524.969 41.7269 525.108 43.6277 525.674 45.0076Z" fill="#EEA886"/>
<path d="M512.256 56.625C511.144 62.3342 503.163 69.4842 503.163 69.4842C502.77 68.3173 502.363 67.1065 501.97 65.8923C507.479 62.3849 512.256 56.625 512.256 56.625Z" fill="#393D63"/>
<path d="M510.255 61.1673C509.75 63.2473 507.421 84.3151 507.676 85.0356C507.825 85.4482 508.95 90.322 510.079 95.7369H499.661C498.593 92.2464 497.963 89.3479 498.115 87.7075C498.78 80.6015 496.366 57.9474 496.366 57.9474C496.366 57.9474 494.203 44.2427 505.601 42.5312C505.601 42.5312 512.334 43.414 512.74 48.3757C513.151 53.3408 510.761 59.0906 510.255 61.1673Z" fill="#EEA886"/>
<path d="M495.525 64.0771L509.669 67.3748C509.669 67.3748 520.89 45.6407 510.784 41.6699C500.133 37.4861 492.973 52.2224 495.525 64.0771Z" fill="url(#paint7_linear_51_4781)"/>
<path d="M528.139 3.47072C528.139 3.47072 540.431 7.97245 532.641 29.135C524.85 50.3009 508.944 25.5228 511.347 12.5181C513.747 -0.486474 528.139 3.47072 528.139 3.47072Z" fill="#EEA987"/>
<path d="M534.525 16.3367C534.525 16.3367 528.037 22.1135 517.626 22.3841C517.626 22.3841 515.191 28.303 514.798 30.1192C514.798 30.1192 504.513 12.4979 516.337 3.59588C528.165 -5.30611 538.892 12.6433 534.525 16.3367Z" fill="#344052"/>
<path d="M519.029 23.652C519.022 22.086 518.226 18.4806 515.849 19.3667C513.473 20.2528 515.602 27.6159 517.168 27.2439C517.168 27.2439 519.046 27.3623 519.029 23.652Z" fill="#EEA987"/>
<path d="M525.047 39.4475C519.27 37.8545 517.036 32.3584 516.968 32.1758C521.667 38.2333 525.209 37.3607 525.209 37.3607C525.125 38.1522 525.118 38.646 525.047 39.4475Z" fill="#A77860"/>
<path d="M551.747 33.9648V35.8487H562.857V46.2524H564.745V33.9648H551.747ZM476.297 46.2524H478.185V35.8487H489.294V33.9648H476.297V46.2524ZM562.86 99.9316V110.339H551.751V112.223H564.748V99.9316H562.86ZM478.185 99.9316H476.297V112.223H489.294V110.339H478.185V99.9316Z" fill="#4598E6"/>
<path d="M354.818 196.518H340.902V199.088H354.818V196.518Z" fill="#4598E6"/>
<path d="M389.571 97.1973V99.7102H404.413V113.608H406.931V97.1973H389.571ZM288.789 113.608H291.311V99.7102H306.153V97.1973H288.792V113.608H288.789ZM404.409 185.311V199.212H389.567V201.725H406.928V185.311H404.409ZM291.311 185.311H288.789V201.728H306.15V199.212H291.308V185.311H291.311Z" fill="#4598E6"/>
<path d="M658.749 290.396H646.979C646.765 289.926 646.589 289.517 646.447 289.189C642.955 280.96 624.95 262.09 624.95 262.09C624.95 262.09 624.95 262.1 624.95 262.131C624.95 262.131 624.94 262.141 624.94 262.151C624.94 262.151 624.94 262.161 624.94 262.171C624.93 262.202 624.919 262.222 624.909 262.253C624.899 262.293 624.889 262.344 624.869 262.408C624.858 262.439 624.848 262.479 624.848 262.51C624.838 262.54 624.828 262.56 624.818 262.591C624.079 265.341 620.455 279.039 618.641 290.393H538.98C538.797 289.341 538.58 288.336 538.336 287.41C537.607 284.589 537.115 281.798 536.8 279.191C536.79 279.059 536.769 278.934 536.759 278.802C536.698 278.322 536.647 277.841 536.607 277.371C535.922 270.238 536.434 264.769 536.475 264.214C536.251 264.695 534.64 270.583 532.532 277.851C531.372 281.839 530.064 286.243 528.762 290.393H509.95L533.556 222.447C534.078 222.038 540.204 219.085 544.672 216.958C549.232 214.79 554.734 211.611 559.704 208.891C562.243 207.501 564.643 206.243 566.721 205.293L567.04 205.151V205.141C570.471 203.575 572.756 202.543 572.756 202.543C572.756 202.543 572.756 202.543 572.766 202.543C572.847 202.533 573.39 202.482 574.251 202.401C579.044 201.941 593.924 200.551 598.9 200.263C599.31 200.233 599.66 200.223 599.924 200.213C600.151 200.203 600.324 200.203 600.426 200.213C601.05 200.253 604.124 201.315 608.152 202.851C608.304 202.902 608.46 202.962 608.613 203.023C608.81 203.094 608.993 203.165 609.186 203.236C609.535 203.368 609.894 203.504 610.25 203.646C610.969 203.933 611.715 204.217 612.464 204.515C612.722 204.616 612.986 204.718 613.254 204.823C621.316 208.012 630.557 211.969 632.751 213.542C634.205 214.574 638.724 223.07 643.958 233.578C649.593 251.595 656.485 277.581 658.749 290.396Z" fill="white"/>
<path d="M600.294 197.913C600.08 208.598 579.349 214.442 579.349 214.442C579.349 214.442 570.678 203.596 572.749 202.557C573.563 202.148 573.891 200.531 573.993 198.715C574.088 196.987 573.976 195.079 573.874 193.868C573.813 193.114 573.756 192.627 573.756 192.627C573.756 192.627 576.719 189.509 580.485 185.795C587.072 179.298 596.124 170.977 596.137 174.289C596.137 174.465 596.114 174.674 596.059 174.918C594.469 182.362 600.294 197.913 600.294 197.913Z" fill="#EEA886"/>
<path d="M592.306 182.258C592.262 182.322 591.384 183.634 589.883 185.518C586.699 189.513 580.716 196.074 573.99 198.709C574.085 196.981 573.973 195.073 573.871 193.862C573.183 193.845 572.495 193.764 571.813 193.615C573.657 190.402 576.322 187.03 576.322 187.03L580.485 185.789L592.306 182.258Z" fill="#A77860"/>
<path d="M596.286 174.428C594.493 178.321 592.791 181.142 592.306 182.261C592.306 182.261 592.306 182.261 592.306 182.265C591.991 182.992 591.137 184.179 589.886 185.522C586.469 189.195 580.119 194.038 573.874 193.869C573.186 193.852 572.498 193.771 571.817 193.622C569.294 193.071 566.318 191.904 564.68 188.704C551.747 163.439 561.111 142.777 561.111 142.777C561.111 142.777 596.48 132.8 602.012 143.42C605.894 150.871 600.5 165.283 596.286 174.428Z" fill="#EEA886"/>
<path d="M561.111 142.773C561.111 142.773 557.826 142.59 557.015 136.377C556.212 130.238 557.836 128.537 557.836 128.537C557.836 128.537 572.437 122.439 577.682 121.648C582.926 120.856 595.819 120.092 598.839 123.542C598.839 123.542 606.182 121.84 608.183 134C611.356 153.292 597.368 172.026 597.368 172.026C597.368 172.026 597.487 159.42 594.7 157.753C591.913 156.082 589.51 160.053 589.51 160.053L583.811 161.071C583.811 161.071 592.466 142.425 582.082 141.735C571.698 141.045 567.054 143.855 561.111 142.773Z" fill="#E8734D"/>
<path d="M589.662 155.03C590.205 149.477 600.27 147.356 599.595 153.177C598.921 158.998 593.964 164.589 591.676 164.392C589.384 164.196 589.249 159.265 589.662 155.03Z" fill="#EEA886"/>
<path d="M648.576 234.106C645.298 223.628 642.46 215.338 641.199 214.438C638.995 212.865 621.536 208.069 613.247 204.829C612.98 204.728 612.715 204.626 612.458 204.521C611.708 204.224 610.963 203.94 610.244 203.652C609.884 203.51 609.525 203.375 609.179 203.243C608.986 203.172 608.8 203.101 608.606 203.03C608.454 202.969 608.298 202.908 608.145 202.857C608.135 202.868 608.125 202.888 608.105 202.898C607.366 203.727 603.535 208.069 598.955 214.57C590.388 226.712 579.231 246.39 580.943 264.556C581.496 270.383 582.174 278.754 583.309 288.147C583.391 288.894 583.482 289.638 583.587 290.396H622.235C622.706 280.564 623.547 267.61 624.818 262.594C624.828 262.564 624.838 262.543 624.848 262.513C624.848 262.482 624.859 262.442 624.869 262.411C624.879 262.361 624.899 262.31 624.909 262.256C624.92 262.225 624.93 262.205 624.94 262.175C624.94 262.165 624.94 262.154 624.94 262.154C624.94 262.144 624.95 262.134 624.95 262.134C624.95 262.134 634.303 276.722 634.785 290.396H659.109C657.922 277.692 654.2 252.086 648.576 234.106Z" fill="#292C47"/>
<path d="M566.877 205.424C566.877 205.424 563.958 215.114 560.189 239.31C560.189 239.31 560.189 239.31 560.189 239.321C560.056 240.129 559.931 240.958 559.799 241.803C559.789 241.894 559.768 241.996 559.758 242.101C559.666 242.652 559.585 243.227 559.5 243.799C559.49 243.87 559.48 243.93 559.47 244.002C559.409 244.38 559.348 244.769 559.297 245.165C559.155 246.115 559.009 247.096 558.866 248.087C557.453 257.96 555.568 273.653 553.652 290.395H538.377C537.546 285.745 536.77 281.514 536.831 278.608C536.8 278.669 536.78 278.74 536.759 278.805C535.539 282.177 534.196 285.846 532.834 289.415C532.712 289.743 532.59 290.067 532.464 290.395H506.133L532.362 221.939C532.885 221.53 539.638 217.901 544.102 215.787C548.764 213.568 554.656 210.839 559.88 208.438C562.379 207.281 564.728 206.209 566.715 205.299L566.877 205.424Z" fill="#292C47"/>
<path d="M602.399 229.364L592.307 235.046L596.619 239.433L587.154 290.4H583.587C582.275 280.098 581.526 270.847 580.943 264.56C578.309 236.47 606.403 204.793 608.145 202.861C609.498 203.372 610.952 203.933 612.458 204.529L602.399 229.364Z" fill="#285173"/>
<path d="M567.033 205.158C567.033 205.158 563.263 217.436 558.877 248.089C557.463 257.951 555.568 273.655 553.652 290.397H552.168L550.211 242.241L555.015 237.049L550.744 231.722L559.883 208.436C562.382 207.279 564.731 206.207 566.718 205.297L567.033 205.158Z" fill="#285173"/>
<path d="M608.657 202.979L600.294 197.912C600.294 197.912 600.06 202.488 579.349 214.441L585.231 230.97L608.657 202.979Z" fill="#E6E7F8"/>
<path d="M573.837 200.217C573.837 200.217 574.163 205.155 579.346 214.439L567.867 229.368L567.03 205.155L573.837 200.217Z" fill="#E6E7F8"/>
<path d="M579.38 214.439C579.38 214.439 581.604 223.318 580.804 225.804C580.804 225.804 575.912 227.579 572.396 225.361C572.396 225.361 574.885 219.144 579.38 214.439Z" fill="#FF9138"/>
<path d="M576.682 244.625C574.336 260.572 574.336 276.702 575.207 290.397H565.402C565.27 288.466 565.145 286.45 565.023 284.346C563.199 252.77 574.386 224.559 574.386 224.559L579.377 223.311C579.377 223.314 577.77 237.266 576.682 244.625Z" fill="#FF9138"/>
<path d="M537.143 264.299C536.77 271.875 536.824 278.602 536.824 278.602V278.606C536.821 278.643 536.814 278.846 536.797 279.184C536.78 279.056 536.766 278.93 536.749 278.802C535.536 282.174 534.186 285.84 532.83 289.409C532.515 285.272 532.434 281.416 532.525 277.848C533.071 256.604 539.767 245.467 539.767 245.467C538.234 249.177 537.495 257.122 537.143 264.299Z" fill="#2D3133"/>
<path d="M445.497 290.487L414.169 307.669L382.709 258.275L420.76 245.088L445.497 290.487Z" fill="#292C47"/>
<path d="M443.511 289.006L414.213 305.071L384.791 258.88L420.377 246.549L443.511 289.006Z" fill="white"/>
<path d="M454.241 280.369C454.241 280.369 448.789 277.768 446.396 276.408C444.002 275.049 437.846 273.182 437.348 272.739C436.849 272.296 419.099 271.203 418.021 270.276C416.943 269.35 415.898 272.448 420.499 273.456C425.099 274.46 431.503 276.919 431.852 278.715C432.201 280.508 427.126 280.934 426.611 282.412C426.096 283.89 426.757 283.558 427.482 283.876C428.211 284.194 433.52 281.258 435.856 282.09C438.192 282.922 441.762 281.769 443.552 282.381C445.342 282.993 454.044 285.916 454.044 285.916L454.241 280.369Z" fill="#EEA886"/>
<path d="M412.64 301.473C412.64 301.473 408.06 297.36 405.843 295.639C403.626 293.917 399.466 288.857 398.853 288.563C398.239 288.269 390.296 272.004 389.001 271.351C387.706 270.698 390.225 268.51 392.967 272.444C395.71 276.377 400.524 281.44 402.355 281.072C404.185 280.703 402.609 275.765 403.806 274.706C405.002 273.648 404.945 274.395 405.528 274.956C406.111 275.518 405.406 281.653 407.104 283.524C408.799 285.394 409.101 289.199 410.376 290.643C411.65 292.087 417.797 299.133 417.797 299.133L412.64 301.473Z" fill="#EEA886"/>
<path d="M511.296 521.324C511.296 521.324 512.286 528.187 512.412 529.215C512.537 530.246 523.436 528.609 523.436 528.609L524.318 520.441C524.314 520.441 512.656 520.357 511.296 521.324Z" fill="#424773"/>
<path d="M512.293 528.346C512.293 528.346 508.838 532.483 505.499 534.282C502.16 536.085 496.909 536.798 494.935 538.665C493.512 540.011 489.742 545.809 503.614 545.694C517.487 545.575 524.175 546.512 525.66 544.29C527.145 542.068 523.511 527.883 523.511 527.883C523.511 527.883 520.226 529.06 512.293 528.346Z" fill="#292C47"/>
<path d="M433.201 521.324C433.201 521.324 434.191 528.187 434.317 529.215C434.442 530.246 445.341 528.609 445.341 528.609L446.223 520.441C446.219 520.441 434.564 520.357 433.201 521.324Z" fill="#424773"/>
<path d="M434.198 528.346C434.198 528.346 430.744 532.482 427.404 534.281C424.065 536.084 411.773 537.566 409.799 539.429C408.372 540.775 406.003 546.197 425.523 545.69C439.388 545.328 446.084 546.508 447.569 544.286C449.054 542.064 445.419 527.879 445.419 527.879C445.419 527.879 442.321 529.14 434.198 528.346Z" fill="#292C47"/>
<path d="M502.268 345.002C502.268 345.002 512.51 361.237 511.747 375.909C510.984 390.584 515.459 406.602 516.998 421.93C518.714 439.021 525.731 479.475 525.986 488.618C526.24 497.76 524.897 526.948 524.897 526.948L510.849 527.27C510.849 527.27 499.048 456.544 495.993 449.326C492.939 442.109 477.782 390.662 477.273 384.888C476.761 379.115 502.268 345.002 502.268 345.002Z" fill="#292C47"/>
<path d="M448.359 347.204C448.359 347.204 440.639 387.422 439.622 396.401C438.605 405.381 437.924 439.863 437.415 445.477C436.907 451.092 434.018 518.929 431.303 527.269H449.264C449.264 527.269 463.051 477.953 463.051 454.619C463.051 431.286 473.703 403.893 480.582 388.497C487.457 373.101 503.197 372.736 507.425 344.173C507.425 344.173 454.081 338.143 448.359 347.204Z" fill="#292C47"/>
<path d="M485.179 208.523C485.179 208.523 471.432 203.399 465.096 213.84C458.756 224.281 459.37 245.179 466.296 247.75C473.225 250.32 483.633 248.978 487.179 242.443C490.725 235.912 493.929 226.469 493.776 220.158C493.624 213.846 488.789 210.346 485.179 208.523Z" fill="#EEA886"/>
<path d="M467.787 248.227C467.787 248.227 468.36 251.93 467.414 253.753C466.469 255.576 485.223 255.624 485.223 255.624C485.223 255.624 486.745 245.704 489.63 237.319C492.518 228.938 467.787 248.227 467.787 248.227Z" fill="#EEA886"/>
<path d="M489.633 237.323C489.633 237.323 488.339 239.454 483.057 238.625C477.771 237.8 471.327 230.785 469.12 230.014C466.913 229.243 466.893 227.951 466.893 227.951L465.513 229.963L463.17 230.112C463.17 230.112 465.306 223.838 462.082 221.281C458.858 218.721 465.428 200.974 482.372 206.883C482.372 206.883 495.387 210.461 494.912 217.848C494.441 225.231 492.546 233.643 489.633 237.323Z" fill="#3A3F47"/>
<path d="M466.302 253.534C466.302 253.534 466.364 250.051 467.947 249.716C469.53 249.381 485.423 247.856 487.369 248.62V252.679C487.365 252.679 483.619 254.979 466.302 253.534Z" fill="#E2D2CA"/>
<path d="M467.242 225.268C467.54 224.03 470.696 220.489 471.903 224.28C473.113 228.072 470.076 233.169 468.384 232.733C466.692 232.293 466.492 228.407 467.242 225.268Z" fill="#EEA886"/>
<path d="M403.227 294.712C403.233 294.709 403.244 294.709 403.254 294.709C403.141 294.757 403.128 294.76 403.227 294.712Z" fill="#323657"/>
<path d="M513.822 383.676C513.822 383.676 505.391 386.151 491.017 387.734C476.642 389.317 440.724 387.163 440.497 385.468C440.27 383.774 448.223 322.376 447.772 319.214C447.321 316.052 447.077 304.786 447.077 304.786C446.901 307.874 443.748 320.482 439.941 327.355C438.565 329.838 433.954 337.623 431.73 335.851C420.97 327.281 404.307 294.981 403.25 294.707C404.138 294.321 411.145 291.101 412.128 290.773C412.99 290.486 420.753 298.687 425.455 303.771C427.554 306.037 429.042 307.684 429.042 307.684C430.401 304.637 435.347 285.429 436.883 278.78C440.351 263.79 439.819 263.164 439.819 263.164C450.335 259.992 466.299 253.531 466.299 253.531L487.362 252.676C487.362 252.676 506.692 256.92 514.307 260.353C515.029 260.678 515.032 277.559 517.015 281.986L510.703 295.271C510.703 295.271 507.059 321.588 506.299 333.294C505.957 338.665 513.822 383.676 513.822 383.676Z" fill="#3064C7"/>
<path d="M517.894 303.901C517.344 305.674 514.846 307.169 513.225 307.825C512.188 308.244 511.025 308.379 509.852 308.163L509.028 308.011L494.593 305.339C494.593 305.339 491.434 269.051 514.314 260.355C514.917 260.552 522.945 287.653 517.894 303.901Z" fill="#0A72BF"/>
<path d="M513.222 307.822C512.184 308.241 511.022 308.376 509.849 308.16L509.025 308.008L510.449 289.463L513.222 307.822Z" fill="#3064C7"/>
<path d="M429.045 307.687L427.282 315.142C427.282 315.142 425.367 307.663 425.459 303.777C427.557 306.04 429.045 307.687 429.045 307.687Z" fill="#0A72BF"/>
<path d="M489.094 209.755C489.094 209.755 507.109 207.503 489.399 237.527L489.094 209.755Z" fill="#3A3F47"/>
<path d="M397.191 255.627L395.357 252.489L409.782 247.523L411.613 250.645L397.191 255.627Z" fill="#292C47"/>
<g opacity="0.95">
<path opacity="0.95" d="M672.3 121.117H682.518L679.389 114.646H669.171L672.3 121.117Z" fill="url(#paint8_linear_51_4781)"/>
<path opacity="0.95" d="M667.517 121.117H669.954L666.825 114.646H664.391L667.517 121.117Z" fill="url(#paint9_linear_51_4781)"/>
<path opacity="0.95" d="M632.212 113.409H673.592L672.219 110.172H630.839L632.212 113.409Z" fill="url(#paint10_linear_51_4781)"/>
</g>
</g>
<defs>
<linearGradient id="paint0_linear_51_4781" x1="152.69" y1="417.529" x2="109.503" y2="417.529" gradientUnits="userSpaceOnUse">
<stop stop-color="#3076A1"/>
<stop offset="1" stop-color="#48C9B6"/>
</linearGradient>
<linearGradient id="paint1_linear_51_4781" x1="119.135" y1="453.093" x2="40.6243" y2="453.093" gradientUnits="userSpaceOnUse">
<stop stop-color="#3076A1"/>
<stop offset="1" stop-color="#48C9B6"/>
</linearGradient>
<linearGradient id="paint2_linear_51_4781" x1="112.424" y1="464.484" x2="53.4965" y2="464.484" gradientUnits="userSpaceOnUse">
<stop stop-color="#3076A1"/>
<stop offset="1" stop-color="#48C9B6"/>
</linearGradient>
<linearGradient id="paint3_linear_51_4781" x1="183.656" y1="404.763" x2="95.1652" y2="404.763" gradientUnits="userSpaceOnUse">
<stop stop-color="#3076A1"/>
<stop offset="1" stop-color="#48C9B6"/>
</linearGradient>
<linearGradient id="paint4_linear_51_4781" x1="130.967" y1="501.133" x2="79.6617" y2="346.855" gradientUnits="userSpaceOnUse">
<stop stop-color="#3076A1"/>
<stop offset="1" stop-color="#48C9B6"/>
</linearGradient>
<linearGradient id="paint5_linear_51_4781" x1="540.362" y1="66.2791" x2="535.913" y2="41.1544" gradientUnits="userSpaceOnUse">
<stop stop-color="#3076A1"/>
<stop offset="1" stop-color="#48C9B6"/>
</linearGradient>
<linearGradient id="paint6_linear_51_4781" x1="540.822" y1="93.5235" x2="531.73" y2="40.5677" gradientUnits="userSpaceOnUse">
<stop stop-color="#3076A1"/>
<stop offset="1" stop-color="#48C9B6"/>
</linearGradient>
<linearGradient id="paint7_linear_51_4781" x1="514.672" y1="66.3574" x2="510.6" y2="41.9704" gradientUnits="userSpaceOnUse">
<stop stop-color="#3076A1"/>
<stop offset="1" stop-color="#48C9B6"/>
</linearGradient>
<linearGradient id="paint8_linear_51_4781" x1="669.172" y1="117.881" x2="682.518" y2="117.881" gradientUnits="userSpaceOnUse">
<stop stop-color="#D1D7E0"/>
<stop offset="1" stop-color="#EBEBFF"/>
</linearGradient>
<linearGradient id="paint9_linear_51_4781" x1="664.39" y1="117.881" x2="669.953" y2="117.881" gradientUnits="userSpaceOnUse">
<stop stop-color="#D1D7E0"/>
<stop offset="1" stop-color="#EBEBFF"/>
</linearGradient>
<linearGradient id="paint10_linear_51_4781" x1="630.84" y1="111.791" x2="673.59" y2="111.791" gradientUnits="userSpaceOnUse">
<stop stop-color="#D1D7E0"/>
<stop offset="1" stop-color="#EBEBFF"/>
</linearGradient>
<clipPath id="clip0_51_4781">
<rect width="711" height="560" fill="white" transform="translate(0.415161)"/>
</clipPath>
</defs>
</svg>
