<svg width="25" height="24" viewBox="0 0 25 24" fill="none" xmlns="http://www.w3.org/2000/svg">
<path d="M12.26 6.15C12.2819 6.10502 12.316 6.06711 12.3584 6.04058C12.4009 6.01406 12.4499 6 12.5 6C12.55 6 12.599 6.01406 12.6415 6.04058C12.6839 6.06711 12.718 6.10502 12.74 6.15L13.691 8.0775C13.71 8.11649 13.7382 8.15025 13.7733 8.17587C13.8083 8.20148 13.849 8.21817 13.892 8.2245L16.022 8.5335C16.2395 8.565 16.328 8.8335 16.169 8.988L14.63 10.4895C14.5989 10.5198 14.5757 10.5572 14.5624 10.5985C14.549 10.6398 14.546 10.6838 14.5535 10.7265L14.9165 12.8475C14.9246 12.8965 14.9189 12.9468 14.9001 12.9927C14.8813 13.0386 14.85 13.0784 14.8098 13.1075C14.7696 13.1367 14.722 13.154 14.6725 13.1576C14.623 13.1613 14.5735 13.151 14.5295 13.128L12.6245 12.126C12.5863 12.106 12.5438 12.0956 12.5007 12.0956C12.4576 12.0956 12.4151 12.106 12.377 12.126L10.472 13.128C10.428 13.1506 10.3786 13.1605 10.3294 13.1567C10.2801 13.1529 10.2328 13.1355 10.1929 13.1064C10.1529 13.0773 10.1218 13.0377 10.103 12.992C10.0842 12.9463 10.0785 12.8963 10.0865 12.8475L10.4495 10.7265C10.4571 10.6839 10.4543 10.64 10.4412 10.5987C10.4282 10.5575 10.4052 10.52 10.3745 10.4895L8.82945 8.988C8.79406 8.95325 8.76905 8.90934 8.75722 8.86117C8.74539 8.81301 8.74721 8.7625 8.76247 8.71531C8.77773 8.66812 8.80584 8.62612 8.84363 8.59401C8.88143 8.56189 8.92742 8.54094 8.97645 8.5335L11.1065 8.2245C11.1494 8.21817 11.1901 8.20148 11.2251 8.17587C11.2602 8.15025 11.2884 8.11649 11.3075 8.0775L12.26 6.15Z" fill="#F86D6D"/>
<path d="M3.5 3C3.5 2.20435 3.81607 1.44129 4.37868 0.87868C4.94129 0.316071 5.70435 0 6.5 0L18.5 0C19.2956 0 20.0587 0.316071 20.6213 0.87868C21.1839 1.44129 21.5 2.20435 21.5 3V23.25C21.4999 23.3857 21.4631 23.5188 21.3933 23.6351C21.3236 23.7515 21.2236 23.8468 21.104 23.9108C20.9844 23.9748 20.8497 24.0052 20.7142 23.9988C20.5787 23.9923 20.4474 23.9492 20.3345 23.874L12.5 19.6515L4.6655 23.874C4.55256 23.9492 4.42135 23.9923 4.28584 23.9988C4.15033 24.0052 4.0156 23.9748 3.896 23.9108C3.7764 23.8468 3.67641 23.7515 3.60667 23.6351C3.53694 23.5188 3.50007 23.3857 3.5 23.25V3ZM6.5 1.5C6.10218 1.5 5.72064 1.65804 5.43934 1.93934C5.15804 2.22064 5 2.60218 5 3V21.849L12.0845 18.126C12.2076 18.0441 12.3521 18.0004 12.5 18.0004C12.6479 18.0004 12.7924 18.0441 12.9155 18.126L20 21.849V3C20 2.60218 19.842 2.22064 19.5607 1.93934C19.2794 1.65804 18.8978 1.5 18.5 1.5H6.5Z" fill="#F86D6D"/>
</svg>
